<svg xmlns="http://www.w3.org/2000/svg" xmlns:xlink="http://www.w3.org/1999/xlink" xml:space="preserve" version="1.1" style="shape-rendering:geometricPrecision;text-rendering:geometricPrecision;image-rendering:optimizeQuality;" viewBox="0 0 0.32 0.39875" x="0px" y="0px" fill-rule="evenodd" clip-rule="evenodd"><defs><style type="text/css">
   
    .fil0 {fill:black;fill-rule:nonzero}
   
  </style></defs><g><path class="fil0" d="M0.128 0.276c0.001,0.004 0.001,0.007 0.001,0.011 0,0.018 -0.014,0.032 -0.032,0.032 -0.018,0 -0.032,-0.014 -0.032,-0.032 0,-0.009 0.003,-0.017 0.009,-0.023 0.003,-0.002 0.006,-0.004 0.009,-0.006l-0.038 -0.215 -0.034 0c-0.006,0 -0.011,-0.005 -0.011,-0.011 0,-0.006 0.005,-0.01 0.011,-0.01l0.043 0c0.005,0 0.01,0.004 0.01,0.009l0.006 0.034 0.041 0c0.002,-0.017 0.01,-0.032 0.021,-0.043 0.014,-0.014 0.033,-0.022 0.053,-0.022 0.021,0 0.04,0.008 0.054,0.022 0.011,0.011 0.019,0.026 0.021,0.043l0.049 0c0.007,0 0.012,0.006 0.011,0.013l-0.026 0.146c-0.001,0.006 -0.006,0.01 -0.011,0.009l-0.183 0 0.004 0.022 0.172 0c0.018,0 0.032,0.014 0.032,0.032 0,0.018 -0.014,0.032 -0.032,0.032 -0.018,0 -0.032,-0.014 -0.032,-0.032 0,-0.004 0.001,-0.007 0.002,-0.011l-0.118 0zm-0.017 -0.19l-0.037 0 0.022 0.125 0.179 0.001 0.022 -0.126 -0.037 0c-0.002,0.017 -0.01,0.031 -0.021,0.043 -0.014,0.013 -0.033,0.022 -0.054,0.022 -0.02,0 -0.039,-0.009 -0.053,-0.022 -0.011,-0.012 -0.019,-0.026 -0.021,-0.043zm0.112 -0.049c-0.009,-0.009 -0.023,-0.015 -0.038,-0.015 -0.014,0 -0.028,0.006 -0.038,0.015 -0.009,0.01 -0.015,0.023 -0.015,0.038 0,0.015 0.006,0.029 0.015,0.038 0.01,0.01 0.024,0.016 0.038,0.016 0.015,0 0.029,-0.006 0.038,-0.016 0.01,-0.009 0.016,-0.023 0.016,-0.038 0,-0.015 -0.006,-0.028 -0.016,-0.038zm-0.063 0.049c-0.006,0 -0.011,-0.005 -0.011,-0.011 0,-0.006 0.005,-0.01 0.011,-0.01l0.015 0 0 -0.015c0,-0.006 0.004,-0.011 0.01,-0.011 0.006,0 0.011,0.005 0.011,0.011l0 0.015 0.015 0c0.006,0 0.011,0.004 0.011,0.01 0,0.006 -0.005,0.011 -0.011,0.011l-0.015 0 0 0.015c0,0.006 -0.005,0.011 -0.011,0.011 -0.006,0 -0.01,-0.005 -0.01,-0.011l0 -0.015 -0.015 0zm0.116 0.19l0 0c-0.003,0 -0.006,0.001 -0.007,0.003 -0.002,0.002 -0.004,0.005 -0.004,0.008 0,0.006 0.005,0.011 0.011,0.011 0.006,0 0.011,-0.005 0.011,-0.011 0,-0.006 -0.005,-0.011 -0.011,-0.011zm-0.179 0l0 0c-0.003,0 -0.006,0.001 -0.007,0.003 -0.002,0.002 -0.004,0.005 -0.004,0.008 0,0.006 0.005,0.011 0.011,0.011 0.006,0 0.011,-0.005 0.011,-0.011 0,-0.006 -0.005,-0.011 -0.011,-0.011z"/></g><text x="0" y="15.319" fill="#000000" font-size="5px" font-weight="bold" font-family="'Helvetica Neue', Helvetica, Arial-Unicode, Arial, Sans-serif">Created by Deemak Daksina</text><text x="0" y="20.319000000000003" fill="#000000" font-size="5px" font-weight="bold" font-family="'Helvetica Neue', Helvetica, Arial-Unicode, Arial, Sans-serif">from the Noun Project</text></svg>