<svg version="1.2" baseProfile="tiny-ps" xmlns="http://www.w3.org/2000/svg" viewBox="0 0 100 95" width="200" height="190">
	<title>cart-svg</title>
	<style>
		tspan { white-space:pre }
		.shp0 { fill: #000000 } 
	</style>
	<g id="Layer">
		<path id="Layer" fill-rule="evenodd" class="shp0" d="M20.01 10C20.92 9.99 21.78 10.68 21.98 11.56L23.76 20L92.01 20C93.2 20.01 94.21 21.28 93.95 22.44L86.95 52.44C86.75 53.31 85.91 53.99 85.01 54L30.95 54L32.64 62L81.01 62C82.07 61.99 83.04 62.94 83.04 64C83.04 65.06 82.07 66.02 81.01 66L31.01 66C29.87 66.06 28.81 64.95 28.92 63.81L18.39 14L8.01 14C6.91 14 6.01 13.1 6.01 12C6.01 10.9 6.91 10 8.01 10L20.01 10ZM30.1 50L83.42 50L89.51 24L24.6 24L30.1 50ZM51.01 81C51.01 85.95 46.96 90 42.01 90C37.06 90 33.01 85.95 33.01 81C33.01 76.05 37.06 72 42.01 72C46.96 72 51.01 76.05 51.01 81ZM70.01 72C74.96 72 79.01 76.05 79.01 81C79.01 85.95 74.96 90 70.01 90C65.06 90 61.01 85.95 61.01 81C61.01 76.05 65.06 72 70.01 72ZM37.01 81C37.01 83.79 39.23 86 42.01 86C44.8 86 47.01 83.79 47.01 81C47.01 78.21 44.8 76 42.01 76C39.23 76 37.01 78.21 37.01 81ZM65.01 81C65.01 83.79 67.23 86 70.01 86C72.8 86 75.01 83.79 75.01 81C75.01 78.21 72.8 76 70.01 76C67.23 76 65.01 78.21 65.01 81Z" />
	</g>
</svg>